<svg width="36" height="36" viewBox="0 0 36 36" fill="none" xmlns="http://www.w3.org/2000/svg">
<path d="M20.653 8.55C20.653 8.05294 21.0559 7.65 21.553 7.65H24.703C25.2 7.65 25.603 8.05294 25.603 8.55C25.603 9.04706 25.2 9.45 24.703 9.45H21.553C21.0559 9.45 20.653 9.04706 20.653 8.55Z" fill="black" fill-opacity="0.38"/>
<path fill-rule="evenodd" clip-rule="evenodd" d="M18 36C27.9411 36 36 27.9411 36 18C36 8.05887 27.9411 0 18 0C8.05887 0 0 8.05887 0 18C0 27.9411 8.05887 36 18 36ZM19.303 17.55H28.303V7.65C28.303 7.17261 28.1133 6.71477 27.7757 6.37721C27.4382 6.03964 26.9803 5.85 26.503 5.85H21.103C20.6256 5.85 20.1677 6.03964 19.8302 6.37721C19.4926 6.71477 19.303 7.17261 19.303 7.65V17.55ZM28.2674 19.35H5.85C6.20396 22.7164 8.56239 25.8988 13.1683 27.675H23.5215C26.1842 25.7808 27.9957 22.7795 28.2674 19.35ZM13.903 29.475V31.05H22.903V29.475H13.903Z" fill="black" fill-opacity="0.38"/>
</svg>
