<svg width="36" height="36" viewBox="0 0 36 36" fill="none" xmlns="http://www.w3.org/2000/svg">
<path fill-rule="evenodd" clip-rule="evenodd" d="M18 36C27.9411 36 36 27.9411 36 18C36 8.05887 27.9411 0 18 0C8.05887 0 0 8.05887 0 18C0 27.9411 8.05887 36 18 36ZM24.7615 19.0249C25.5109 19.1993 26.093 19.7843 26.2015 20.5346L26.7633 24.4069C26.9611 25.7704 25.954 27 24.5558 27H11.4442C10.0449 27 9.03891 25.7704 9.23672 24.4069L9.79848 20.5346C9.90699 19.7843 10.4891 19.2004 11.2385 19.0249C14.1513 18.3454 14.8815 16.6759 15.0047 14.8241C15.5212 14.7285 16.4402 14.625 18 14.625C19.5598 14.625 20.4788 14.7285 20.9953 14.8241C21.1185 16.6759 21.8487 18.3454 24.7615 19.0249ZM15.1448 21.366C15.1448 22.9185 16.4232 24.1785 18 24.1785C19.5757 24.1785 20.8552 22.9185 20.8552 21.366C20.8552 19.8135 19.5768 18.5535 18 18.5535C16.4232 18.5535 15.1448 19.8135 15.1448 21.366ZM18 9C24.9039 9.00113 29.2195 11.8125 29.2466 13.5C29.2726 15.1875 29.2217 17.3835 26.3813 17.0179C23.2424 16.6131 23.2498 15.5605 23.2603 14.054C23.261 13.965 23.2616 13.8745 23.2616 13.7824C23.2605 12.6304 20.5579 12.3525 18 12.3525C15.4421 12.3525 12.7384 12.6304 12.7384 13.7824C12.7384 13.8745 12.7391 13.965 12.7397 14.054C12.7503 15.5605 12.7577 16.6131 9.61876 17.0179C6.77716 17.3835 6.72743 15.1875 6.75343 13.5C6.77942 11.8125 11.0949 9.00113 18 9Z" fill="black" fill-opacity="0.6"/>
</svg>
