<svg width="36" height="36" viewBox="0 0 36 36" fill="none" xmlns="http://www.w3.org/2000/svg">
<path fill-rule="evenodd" clip-rule="evenodd" d="M18 36C27.9411 36 36 27.9411 36 18C36 8.05887 27.9411 0 18 0C8.05887 0 0 8.05887 0 18C0 27.9411 8.05887 36 18 36ZM26.4375 11.8125V9H9.5625V11.8125H12.8602L11.353 17.4375H6.75V20.25H10.5994L8.79076 27H11.1201L12.9288 20.25H23.1434L24.952 27H27.2814L25.4728 20.25H29.25V17.4375H24.7191L23.2119 11.8125H26.4375ZM20.8826 11.8125H15.1896L13.6824 17.4375H22.3898L20.8826 11.8125Z" fill="black" fill-opacity="0.38"/>
</svg>
