<svg width="36" height="36" viewBox="0 0 36 36" fill="none" xmlns="http://www.w3.org/2000/svg">
<path fill-rule="evenodd" clip-rule="evenodd" d="M18 36C27.9411 36 36 27.9411 36 18C36 8.05887 27.9411 0 18 0C8.05887 0 0 8.05887 0 18C0 27.9411 8.05887 36 18 36ZM29.1291 10.4494L24.7098 11.6195C23.6177 11.9087 22.6873 12.6177 22.1234 13.5905L21.6297 14.4423L22.8313 15.1333C23.514 15.526 23.9248 16.2599 23.8997 17.0424L23.8156 19.6576C24.3244 20.2007 24.7673 20.7536 25.134 21.305C25.7455 22.2243 26.1334 23.1213 26.2754 23.9447C26.4175 24.7682 26.3109 25.5019 25.9619 26.104L7.4756 15.473C7.82462 14.8709 8.4093 14.4121 9.19627 14.123C9.98324 13.8338 10.9571 13.7199 12.0622 13.7877C12.7249 13.8284 13.427 13.9339 14.1536 14.1013L16.3855 12.7212C17.0532 12.3083 17.8967 12.2956 18.5795 12.6882L19.7811 13.3792L20.2748 12.5274C21.1207 11.0681 22.5162 10.0047 24.1543 9.57091L28.5737 8.40077L29.1291 10.4494ZM7.43669 21.5642C7.19155 21.4232 7.03645 21.15 7.00551 20.8047C6.97458 20.4593 7.07034 20.0701 7.27174 19.7226C7.56176 19.2223 8.27149 18.6957 8.82482 18.3372C9.15643 18.1224 9.5694 18.3598 9.5484 18.7533C9.51335 19.4099 9.4104 20.2854 9.12037 20.7857C8.91897 21.1332 8.62844 21.4104 8.31269 21.5564C7.99694 21.7024 7.68184 21.7052 7.43669 21.5642ZM10.6718 23.4247C10.4266 23.2837 10.2715 23.0105 10.2406 22.6651C10.2097 22.3197 10.3054 21.9305 10.5068 21.5831C10.7969 21.0827 11.5066 20.5562 12.0599 20.1977C12.3915 19.9828 12.8045 20.2203 12.7835 20.6138C12.7485 21.2703 12.6455 22.1458 12.3555 22.6462C12.1541 22.9936 11.8635 23.2708 11.5478 23.4168C11.232 23.5628 10.9169 23.5656 10.6718 23.4247ZM13.4757 24.5255C13.5066 24.8709 13.6617 25.1441 13.9069 25.2851C14.152 25.4261 14.4671 25.4233 14.7829 25.2773C15.0986 25.1313 15.3892 24.8541 15.5906 24.5066C15.8806 24.0063 15.9836 23.1308 16.0186 22.4742C16.0396 22.0807 15.6266 21.8433 15.295 22.0581C14.7417 22.4166 14.032 22.9432 13.7419 23.4435C13.5405 23.791 13.4448 24.1802 13.4757 24.5255ZM17.142 27.1455C16.8969 27.0045 16.7418 26.7313 16.7108 26.3859C16.6799 26.0406 16.7757 25.6513 16.9771 25.3039C17.2671 24.8035 17.9768 24.277 18.5301 23.9185C18.8617 23.7036 19.2747 23.9411 19.2537 24.3346C19.2187 24.9912 19.1157 25.8666 18.8257 26.367C18.6243 26.7145 18.3338 26.9917 18.018 27.1377C17.7023 27.2837 17.3872 27.2865 17.142 27.1455ZM20.3771 29.0059C20.132 28.865 19.9769 28.5917 19.9459 28.2464C19.915 27.901 20.0108 27.5118 20.2122 27.1643C20.5022 26.664 21.2119 26.1374 21.7652 25.7789C22.0968 25.5641 22.5098 25.8016 22.4888 26.1951C22.4538 26.8516 22.3508 27.7271 22.0608 28.2275C21.8594 28.5749 21.5689 28.8521 21.2531 28.9981C20.9374 29.1441 20.6223 29.1469 20.3771 29.0059Z" fill="black" fill-opacity="0.82"/>
</svg>
