<svg width="36" height="36" viewBox="0 0 36 36" fill="none" xmlns="http://www.w3.org/2000/svg">
<path fill-rule="evenodd" clip-rule="evenodd" d="M18 36C27.9411 36 36 27.9411 36 18C36 8.05887 27.9411 0 18 0C8.05887 0 0 8.05887 0 18C0 27.9411 8.05887 36 18 36ZM16.65 7.2C16.1529 7.2 15.75 7.60292 15.75 8.1V9H9.45C9.20149 9 9 9.20149 9 9.45V10.35C9 10.5985 9.20149 10.8 9.45 10.8H26.55C26.7985 10.8 27 10.5985 27 10.35V9.45C27 9.20149 26.7985 9 26.55 9H20.25V8.1C20.25 7.60292 19.8471 7.2 19.35 7.2H16.65ZM25.65 27V11.7H10.35V27C10.35 27.9941 11.1559 28.8 12.15 28.8H23.85C24.8441 28.8 25.65 27.9941 25.65 27ZM13.95 15.3C13.95 15.0515 14.1515 14.85 14.4 14.85H15.3C15.5485 14.85 15.75 15.0515 15.75 15.3V25.2C15.75 25.4485 15.5485 25.65 15.3 25.65H14.4C14.1515 25.65 13.95 25.4485 13.95 25.2V15.3ZM20.25 15.3C20.25 15.0515 20.4515 14.85 20.7 14.85H21.6C21.8485 14.85 22.05 15.0515 22.05 15.3V25.2C22.05 25.4485 21.8485 25.65 21.6 25.65H20.7C20.4515 25.65 20.25 25.4485 20.25 25.2V15.3Z" fill="black" fill-opacity="0.38"/>
</svg>
