<svg width="36" height="36" viewBox="0 0 36 36" fill="none" xmlns="http://www.w3.org/2000/svg">
<path fill-rule="evenodd" clip-rule="evenodd" d="M18 36C27.9411 36 36 27.9411 36 18C36 8.05887 27.9411 0 18 0C8.05887 0 0 8.05887 0 18C0 27.9411 8.05887 36 18 36ZM20.8607 7.2C20.6122 7.2 20.4107 7.40147 20.4107 7.65V8.925C20.4107 9.04926 20.5114 9.15 20.6357 9.15H23.0464V9.8H13.8214C10.9101 9.8 8.55 12.1281 8.55 15V18.675C8.55 18.7993 8.65073 18.9 8.775 18.9H15.705C15.8292 18.9 15.93 18.7993 15.93 18.675V18.38C15.93 17.662 16.52 17.08 17.2478 17.08H27V9.8H24.3643V9.15H26.775C26.8993 9.15 27 9.04926 27 8.925V7.65C27 7.40147 26.7985 7.2 26.55 7.2H20.8607ZM9.53851 29.1144C10.1714 29.7775 11.0299 30.15 11.925 30.15C12.8201 30.15 13.6786 29.7775 14.3115 29.1144C14.9444 28.4513 15.3 27.552 15.3 26.6143C15.3 24.2571 11.925 20.25 11.925 20.25C11.925 20.25 8.55 24.2571 8.55 26.6143C8.55 27.552 8.90558 28.4513 9.53851 29.1144Z" fill="black" fill-opacity="0.6"/>
</svg>
